<?xml version="1.0" encoding="utf-8"?>
<!-- Generator: Adobe Illustrator 21.0.2, SVG Export Plug-In . SVG Version: 6.00 Build 0)  -->
<svg version="1.1" id="Слой_1" xmlns="http://www.w3.org/2000/svg" xmlns:xlink="http://www.w3.org/1999/xlink" x="0px" y="0px"
	 viewBox="0 0 807.9 221.1" style="enable-background:new 0 0 807.9 221.1;" xml:space="preserve">
<style type="text/css">
	.st0{fill:#FFFFFF;}
	.st1{fill:#EDBC6E;}
</style>
<g>
	<g>
		<g>
			<path class="st0" d="M19.9,199.2v-6.4l-3,3.8l-3-3.8v6.4h-2v-10.1H13l3.8,4.8l3.8-4.8h1.2v10.1H19.9z"/>
			<path class="st0" d="M22,199.3h-2.2v-6.2l-2.9,3.6l-2.9-3.6v6.2h-2.2V189h1.4l3.8,4.7l3.8-4.7H22V199.3z M20,199.1h1.7v-9.8h-1
				l-3.9,4.9l-3.9-4.9h-1v9.8h1.7v-6.6l3.1,3.9l3.2-3.9V199.1z"/>
		</g>
		<g>
			<path class="st0" d="M43.4,199.2h-2.2l4.1-10.1h1.2l4.1,10.1h-2.2l-0.7-1.8h-3.5L43.4,199.2z M44.8,195.5H47l-1.1-2.7L44.8,195.5
				z"/>
			<path class="st0" d="M50.8,199.3h-2.5l-0.7-1.8h-3.4l-0.7,1.8H41l4.2-10.3h1.3L50.8,199.3z M48.5,199.1h1.9l-4-9.8h-1l-4,9.8h1.9
				l0.7-1.8h3.7L48.5,199.1z M47.2,195.6h-2.5l1.3-3.2L47.2,195.6z M45,195.4h1.8l-0.9-2.3L45,195.4z"/>
		</g>
		<g>
			<path class="st0" d="M72,199.2h-2v-10.1h6.5v1.9H72V199.2z"/>
			<path class="st0" d="M72.1,199.3h-2.2V189h6.8v2.1h-4.5V199.3z M70.1,199.1h1.7v-8.2h4.5v-1.6h-6.3V199.1z"/>
		</g>
		<g>
			<path class="st0" d="M96.1,199.2h-2.2l4.1-10.1h1.2l4.1,10.1h-2.2l-0.7-1.8h-3.5L96.1,199.2z M97.6,195.5h2.2l-1.1-2.7
				L97.6,195.5z"/>
			<path class="st0" d="M103.5,199.3H101l-0.7-1.8h-3.4l-0.7,1.8h-2.5L98,189h1.3L103.5,199.3z M101.2,199.1h1.9l-4-9.8h-1l-4,9.8
				h1.9l0.7-1.8h3.7L101.2,199.1z M99.9,195.6h-2.5l1.3-3.2L99.9,195.6z M97.7,195.4h1.8l-0.9-2.3L97.7,195.4z"/>
		</g>
		<g>
			<path class="st0" d="M125.9,193.1c1.1,0,1.3-0.6,1.3-1.1c0-0.7-0.4-1.1-1.4-1.1h-0.1c-0.8,0-1.9,0.4-2.7,1l-1.3-1.2
				c1-1,2.5-1.7,3.9-1.7h0.1c2.7,0,3.3,1.7,3.3,2.7c0,1.1-0.6,2-1.4,2.3c1,0.2,1.7,1.2,1.7,2.3c0,1.6-1,2.9-3.7,2.9h-0.1
				c-1.6,0-3-0.8-4-1.8l1.3-1.2c0.7,0.7,1.8,1.2,2.8,1.2h0.1c1.1,0,1.8-0.3,1.8-1.3c0-0.6-0.4-1.2-1.4-1.2h-1.5v-1.9H125.9z"/>
			<path class="st0" d="M125.7,199.4h-0.1c-1.5,0-3-0.7-4.1-1.9l-0.1-0.1l1.5-1.4l0.1,0.1c0.7,0.7,1.8,1.1,2.7,1.1h0.1
				c1.1,0,1.7-0.4,1.7-1.1c0-0.7-0.5-1.1-1.3-1.1h-1.6V193h1.4c1,0,1.2-0.6,1.2-1c0-0.8-0.7-1-1.3-1h-0.1c-0.8,0-1.9,0.4-2.6,1
				l-0.1,0.1l-1.5-1.4l0.1-0.1c1.1-1.1,2.6-1.7,4-1.7h0.1c2.5,0,3.4,1.5,3.4,2.8c0,1-0.4,1.9-1.2,2.3c0.9,0.4,1.5,1.2,1.5,2.4
				C129.5,197.5,129,199.4,125.7,199.4z M121.8,197.5c1,1.1,2.4,1.7,3.8,1.7h0.1c2.3,0,3.6-1,3.6-2.8c0-1.1-0.6-2-1.6-2.2l-0.4-0.1
				l0.4-0.1c0.8-0.3,1.3-1.1,1.3-2.2c0-0.6-0.2-2.5-3.2-2.6h-0.1c-1.3,0-2.6,0.6-3.7,1.5l1.1,1c0.7-0.6,1.8-1,2.7-1h0.1
				c1,0,1.5,0.4,1.5,1.2c0,0.3-0.1,1.2-1.4,1.2h-1.1v1.6h1.3c1.2,0,1.6,0.7,1.6,1.3c0,0.9-0.6,1.4-1.9,1.4h-0.1
				c-0.9,0-2-0.5-2.8-1.1L121.8,197.5z"/>
		</g>
		<g>
			<path class="st0" d="M154.7,199.2v-6.3l-4.8,6.3h-1.2v-10.1h2v6.3l4.8-6.3h1.2v10.1H154.7z"/>
			<path class="st0" d="M156.8,199.3h-2.2v-6.1l-4.6,6.1h-1.3V189h2.2v6.1l4.6-6.1h1.4V199.3z M154.8,199.1h1.7v-9.8h-1l-4.9,6.6
				v-6.6h-1.7v9.8h1l5-6.6V199.1z"/>
		</g>
		<g>
			<path class="st0" d="M182.5,199.2v-4.1h-3.9v4.1h-2v-10.1h2v4.1h3.9v-4.1h2v10.1H182.5z"/>
			<path class="st0" d="M184.6,199.3h-2.2v-4.1h-3.6v4.1h-2.2V189h2.2v4.1h3.6V189h2.2V199.3z M182.6,199.1h1.7v-9.8h-1.7v4.1h-4.1
				v-4.1h-1.7v9.8h1.7V195h4.1V199.1z"/>
		</g>
		<g>
			<path class="st0" d="M257,190.7l-1.3,1.2c-0.6-0.6-1.5-1-2.5-1c-1.8,0-3.1,1.3-3.1,3.3c0,1.9,1.4,3.3,3.1,3.3c1,0,1.9-0.3,2.5-1
				l1.3,1.2c-0.9,1-2.3,1.7-3.8,1.7c-2.8,0-5.1-2.3-5.1-5.1s2.3-5.1,5.1-5.1C254.7,189.1,256,189.7,257,190.7z"/>
			<path class="st0" d="M253.2,199.4c-2.9,0-5.2-2.4-5.2-5.3c0-2.9,2.3-5.3,5.2-5.3c1.5,0,2.9,0.6,3.9,1.7l0.1,0.1l-1.5,1.4
				l-0.1-0.1c-0.6-0.6-1.5-1-2.4-1c-1.7,0-3,1.3-3,3.1s1.3,3.1,3,3.1c1,0,1.8-0.3,2.4-1l0.1-0.1l1.5,1.4l-0.1,0.1
				C256.1,198.8,254.7,199.4,253.2,199.4z M253.2,189.2c-2.8,0-5,2.2-5,5c0,2.8,2.2,5,5,5c1.4,0,2.7-0.6,3.6-1.5l-1.1-1
				c-0.7,0.6-1.5,0.9-2.5,0.9c-1.9,0-3.3-1.4-3.3-3.4c0-1.9,1.4-3.4,3.3-3.4c0.9,0,1.8,0.3,2.5,0.9l1.1-1
				C255.9,189.7,254.5,189.2,253.2,189.2z"/>
		</g>
		<g>
			<path class="st0" d="M277.5,199.2h-2.2l4.1-10.1h1.2l4.1,10.1h-2.2l-0.7-1.8h-3.5L277.5,199.2z M278.9,195.5h2.2l-1.1-2.7
				L278.9,195.5z"/>
			<path class="st0" d="M284.9,199.3h-2.5l-0.7-1.8h-3.4l-0.7,1.8h-2.5l4.2-10.3h1.3L284.9,199.3z M282.6,199.1h1.9l-4-9.8h-1
				l-4,9.8h1.9l0.7-1.8h3.7L282.6,199.1z M281.2,195.6h-2.5l1.3-3.2L281.2,195.6z M279.1,195.4h1.8l-0.9-2.3L279.1,195.4z"/>
		</g>
		<g>
			<path class="st0" d="M309.7,199.2v-4.1h-3.9v4.1h-2v-10.1h2v4.1h3.9v-4.1h2v10.1H309.7z"/>
			<path class="st0" d="M311.8,199.3h-2.2v-4.1h-3.6v4.1h-2.2V189h2.2v4.1h3.6V189h2.2V199.3z M309.8,199.1h1.7v-9.8h-1.7v4.1h-4.1
				v-4.1h-1.7v9.8h1.7V195h4.1V199.1z"/>
		</g>
		<g>
			<path class="st0" d="M335.6,199.2h-2V191h-2.8v-1.9h7.5v1.9h-2.8V199.2z"/>
			<path class="st0" d="M335.7,199.3h-2.2v-8.2h-2.8V189h7.7v2.1h-2.8V199.3z M333.8,199.1h1.7v-8.2h2.8v-1.6H331v1.6h2.8V199.1z"/>
		</g>
		<g>
			<path class="st0" d="M364.1,193.2v1.9h-4.4v2.3h4.7v1.9h-6.7v-10.1h6.7v1.9h-4.7v2.2H364.1z"/>
			<path class="st0" d="M364.6,199.3h-6.9V189h6.9v2.1h-4.7v2h4.4v2.1h-4.4v2h4.7V199.3z M357.9,199.1h6.4v-1.6h-4.7V195h4.4v-1.6
				h-4.4v-2.4h4.7v-1.6h-6.4V199.1z"/>
		</g>
		<g>
			<path class="st0" d="M385.5,199.2h-2.3l3.5-5.2l-3.3-4.8h2.3l2.1,3.1l2.1-3.1h2.3l-3.3,4.9l3.5,5.2h-2.3l-2.4-3.4L385.5,199.2z"
				/>
			<path class="st0" d="M392.6,199.3h-2.6l-2.3-3.3l-2.2,3.3H383l3.6-5.4l-3.3-4.9h2.6l2.1,3l2-3h2.6l-3.3,5L392.6,199.3z
				 M390.2,199.1h2l-3.4-5l3.2-4.8h-2l-2.2,3.2l-2.2-3.2h-2l3.2,4.7l-3.4,5.1h2l2.4-3.5L390.2,199.1z"/>
		</g>
		<g>
			<path class="st0" d="M417.5,199.2v-4.1h-3.9v4.1h-2v-10.1h2v4.1h3.9v-4.1h2v10.1H417.5z"/>
			<path class="st0" d="M419.6,199.3h-2.2v-4.1h-3.6v4.1h-2.2V189h2.2v4.1h3.6V189h2.2V199.3z M417.6,199.1h1.7v-9.8h-1.7v4.1h-4.1
				v-4.1h-1.7v9.8h1.7V195h4.1V199.1z"/>
		</g>
		<g>
			<path class="st0" d="M445.4,199.2v-6.3l-4.8,6.3h-1.2v-10.1h2v6.3l4.8-6.3h1.2v10.1H445.4z"/>
			<path class="st0" d="M447.5,199.3h-2.2v-6.1l-4.6,6.1h-1.3V189h2.2v6.1l4.6-6.1h1.4V199.3z M445.5,199.1h1.7v-9.8h-1l-4.9,6.6
				v-6.6h-1.7v9.8h1l5-6.6V199.1z"/>
		</g>
		<g>
			<path class="st0" d="M471.7,196c-0.4-0.7-0.7-0.9-1.4-0.9h-0.9v4.1h-2v-10.1h2v4h0.9c0.7,0,0.9-0.2,1.4-0.9l2-3.1h2.2l-2.4,3.7
				c-0.6,0.8-0.9,1.1-1.2,1.2c0.3,0.1,0.6,0.4,1.2,1.3l2.5,3.8h-2.2L471.7,196z"/>
			<path class="st0" d="M476.3,199.3h-2.5l-2.1-3.3c-0.4-0.7-0.6-0.8-1.3-0.8h-0.8v4.1h-2.2V189h2.2v4h0.7c0.6,0,0.8-0.2,1.3-0.8
				l2-3.2h2.5l-2.5,3.9c-0.5,0.7-0.8,1-1,1.1c0.3,0.2,0.6,0.5,1.1,1.2L476.3,199.3z M473.9,199.1h1.9l-2.3-3.6
				c-0.5-0.9-0.9-1.1-1.2-1.3l-0.2-0.1l0.2-0.1c0.2-0.1,0.5-0.3,1.1-1.2l2.2-3.5h-1.9l-1.9,3c-0.4,0.7-0.7,1-1.5,1h-1v-4h-1.7v9.8
				h1.7V195h1c0.8,0,1,0.3,1.5,1L473.9,199.1z"/>
		</g>
		<g>
			<path class="st0" d="M501.2,199.2v-6.3l-4.8,6.3h-1.2v-10.1h2v6.3l4.8-6.3h1.2v10.1H501.2z"/>
			<path class="st0" d="M503.3,199.3h-2.2v-6.1l-4.6,6.1h-1.3V189h2.2v6.1l4.6-6.1h1.4V199.3z M501.3,199.1h1.7v-9.8h-1l-4.9,6.6
				v-6.6h-1.7v9.8h1l5-6.6V199.1z"/>
		</g>
	</g>
	<g>
		<g>
			<path class="st0" d="M62.7,92.7c-3-5-11.2-9.7-20.7-9.7c-12.2,0-18.1,5.1-18.1,11.6c0,7.6,9,9.7,19.5,11
				c18.2,2.2,35.2,7,35.2,27.8c0,19.5-17.2,27.8-36.7,27.8c-17.8,0-31.6-5.5-38.1-21.5l13.7-7.1c3.9,9.6,14,13.9,24.6,13.9
				c10.4,0,20.1-3.6,20.1-13.1c0-8.2-8.6-11.6-20.2-12.9c-17.8-2.1-34.3-6.9-34.3-26.5c0-18,17.7-25.3,33.8-25.5
				c13.6,0,27.7,3.9,34.3,17.3L62.7,92.7z"/>
			<path class="st0" d="M153.3,142.5h-45.7l-7.5,16.5H82.3l39.2-87.4h18l39.2,87.4h-18L153.3,142.5z M130.5,90l-16.2,37.2h32.4
				L130.5,90z"/>
			<path class="st0" d="M243.5,71.5H260V159h-10.2v0.1l-45.9-59V159h-16.5V71.6h13.4l42.8,54.2V71.5z"/>
			<path class="st0" d="M346.1,97c0,6.7-3.2,13.2-11.4,16.8c10.2,3.1,14,14,14,19.5c0,19.5-14.6,25.7-32.7,25.7
				c-13.9,0-27.6,0-41.4,0V71.6c13.7,0,27.6,0,41.4,0C333.2,71.6,346.1,79.4,346.1,97z M290.8,106.7H316c10.4,0,13.7-4.4,13.7-9.4
				c0-4-3.2-10.7-13.7-10.7h-25.2V106.7z M290.8,143.7H316c6.7,0,16.3-2.2,16.3-10.5c0-7.9-9.6-12-16.3-12h-25.2V143.7z"/>
			<path class="st0" d="M437,71.8v50c0,25.8-15.8,39.1-37.8,39.1c-21,0-38.8-12.7-38.8-39.1v-50h16.3v50c0,15.7,9,24.1,22.6,24.1
				c13.6,0,21.3-9.1,21.3-24.1v-50H437z"/>
			<path class="st0" d="M489.9,107.7l23.2-36.1h19.8v0.7l-34.8,50.5V159h-16.5v-36.1l-33.6-50.5v-0.7h19.6L489.9,107.7z"/>
		</g>
		<g>
			<g>
				<rect x="553.6" y="154.5" class="st1" width="251.1" height="13.9"/>
			</g>
			<g>
				<g>
					<path class="st0" d="M740.6,127.6l3.2,14.5h15.1l-5.9-23.4c-3.7,3.1-7.6,5.9-11.8,8.6C741.1,127.4,740.8,127.5,740.6,127.6z"/>
					<path class="st0" d="M582.7,142.1h16l10.5-18.2c-3.9-2.7-7.5-5.7-10.9-8.9L582.7,142.1z"/>
				</g>
				<g>
					<path class="st0" d="M757.7,75.8c-11.2,26.9-42.8,46.3-80,46.3c-46.5,0-84.3-30.4-84.3-67.7c0-2,0.1-4,0.3-6l-12.8-2.1
						c-0.3,2.7-0.5,5.4-0.5,8.1c0,44.4,43.6,80.6,97.3,80.6c43.7,0,80.8-24.1,93-57L757.7,75.8z"/>
					<path class="st0" d="M677.7,135.1c-53.7,0-97.4-36.2-97.4-80.7c0-2.7,0.2-5.4,0.5-8.1l0-0.1l13,2.2l0,0.1c-0.2,2-0.3,4-0.3,5.9
						c0,37.2,37.8,67.5,84.2,67.5c36.3,0,68.4-18.6,79.9-46.2l0-0.1l0.1,0l13.2,2.2l-0.1,0.1c-6,16.2-18.3,30.7-34.7,40.9
						C719.2,129.5,699,135.1,677.7,135.1z M581,46.4c-0.3,2.6-0.5,5.3-0.5,7.9c0,44.4,43.6,80.5,97.2,80.5
						c42.2,0,80.4-23.4,92.9-56.8l-12.8-2.1c-5.6,13.3-16,24.8-30.3,33.2c-14.5,8.6-31.8,13.1-49.8,13.1
						c-46.6,0-84.5-30.4-84.5-67.8c0-1.9,0.1-3.9,0.3-5.9L581,46.4z"/>
				</g>
				<g>
					<path class="st1" d="M727.6,1.1c-5.7,0-11.2,0.9-16.3,2.5l7.6,11.4c2.8-0.6,5.7-0.9,8.8-0.9c18.4,0,33.7,11.5,37.5,26.9
						l13.5,2.2C775.9,19.5,754,1.1,727.6,1.1z"/>
				</g>
				<g>
					<path class="st0" d="M737.7,68.9c-34.1,0-67.4-7.9-93.1-16.3c-42.7-14-73.1-31.6-74.4-32.3l7-12l-3.5,6l3.5-6
						c0.3,0.2,30.6,17.7,72,31.2c37.7,12.3,92.6,23.6,139.9,7.9l4.4,13.2C775.4,66.5,756.4,68.9,737.7,68.9z"/>
				</g>
			</g>
			<g>
				<g>
					<g>
						<path class="st1" d="M763.2,220.4c-13,0-23.7-10.6-23.7-23.7s10.6-23.7,23.7-23.7s23.7,10.6,23.7,23.7
							S776.3,220.4,763.2,220.4z M763.2,187c-5.4,0-9.8,4.4-9.8,9.8s4.4,9.8,9.8,9.8s9.8-4.4,9.8-9.8S768.6,187,763.2,187z"/>
					</g>
				</g>
			</g>
			<g>
				<g>
					<g>
						<path class="st1" d="M599.7,220.4c-13,0-23.7-10.6-23.7-23.7s10.6-23.7,23.7-23.7s23.7,10.6,23.7,23.7
							S612.7,220.4,599.7,220.4z M599.7,187c-5.4,0-9.8,4.4-9.8,9.8s4.4,9.8,9.8,9.8c5.4,0,9.8-4.4,9.8-9.8S605.1,187,599.7,187z"/>
					</g>
				</g>
			</g>
		</g>
	</g>
</g>
</svg>
