<?xml version="1.0" encoding="utf-8"?>
<!-- Generator: Adobe Illustrator 21.0.2, SVG Export Plug-In . SVG Version: 6.00 Build 0)  -->
<svg version="1.1" id="Слой_1" xmlns="http://www.w3.org/2000/svg" xmlns:xlink="http://www.w3.org/1999/xlink" x="0px" y="0px"
	 viewBox="0 0 807.9 221.1" style="enable-background:new 0 0 807.9 221.1;" xml:space="preserve">
<style type="text/css">
	.st0{fill:#FFFFFF;}
	.st1{fill:#EDBC6E;}
</style>
<g>
	<g>
		<g>
			<path class="st0" d="M19.9,199.2v-6.4l-3,3.8l-3-3.8v6.4h-2v-10.1H13l3.8,4.8l3.8-4.8h1.2v10.1H19.9z"/>
			<path class="st0" d="M22,199.3h-2.2v-6.2l-2.9,3.6l-2.9-3.6v6.2h-2.2V189h1.4l3.8,4.7l3.8-4.7H22V199.3z M20,199.1h1.7v-9.8h-1
				l-3.9,4.9l-3.9-4.9h-1v9.8h1.7v-6.6l3.1,3.9l3.2-3.9V199.1z"/>
		</g>
		<g>
			<path class="st0" d="M43.4,199.2h-2.2l4.1-10.1h1.2l4.1,10.1h-2.2l-0.7-1.8h-3.5L43.4,199.2z M44.8,195.5H47l-1.1-2.7L44.8,195.5
				z"/>
			<path class="st0" d="M50.8,199.3h-2.5l-0.7-1.8h-3.4l-0.7,1.8H41l4.2-10.3h1.3L50.8,199.3z M48.5,199.1h1.9l-4-9.8h-1l-4,9.8h1.9
				l0.7-1.8h3.7L48.5,199.1z M47.2,195.6h-2.5l1.3-3.2L47.2,195.6z M45,195.4h1.8l-0.9-2.3L45,195.4z"/>
		</g>
		<g>
			<path class="st0" d="M72,199.2h-2v-10.1h6.5v1.9H72V199.2z"/>
			<path class="st0" d="M72.1,199.3h-2.2V189h6.8v2.1h-4.5V199.3z M70.1,199.1h1.7v-8.2h4.5v-1.6h-6.3V199.1z"/>
		</g>
		<g>
			<path class="st0" d="M96.1,199.2h-2.2l4.1-10.1h1.2l4.1,10.1h-2.2l-0.7-1.8h-3.5L96.1,199.2z M97.6,195.5h2.2l-1.1-2.7
				L97.6,195.5z"/>
			<path class="st0" d="M103.5,199.3H101l-0.7-1.8h-3.4l-0.7,1.8h-2.5L98,189h1.3L103.5,199.3z M101.2,199.1h1.9l-4-9.8h-1l-4,9.8
				h1.9l0.7-1.8h3.7L101.2,199.1z M99.9,195.6h-2.5l1.3-3.2L99.9,195.6z M97.7,195.4h1.8l-0.9-2.3L97.7,195.4z"/>
		</g>
		<g>
			<path class="st0" d="M125.9,193.1c1.1,0,1.3-0.6,1.3-1.1c0-0.7-0.4-1.1-1.4-1.1h-0.1c-0.8,0-1.9,0.4-2.7,1l-1.3-1.2
				c1-1,2.5-1.7,3.9-1.7h0.1c2.7,0,3.3,1.7,3.3,2.7c0,1.1-0.6,2-1.4,2.3c1,0.2,1.7,1.2,1.7,2.3c0,1.6-1,2.9-3.7,2.9h-0.1
				c-1.6,0-3-0.8-4-1.8l1.3-1.2c0.7,0.7,1.8,1.2,2.8,1.2h0.1c1.1,0,1.8-0.3,1.8-1.3c0-0.6-0.4-1.2-1.4-1.2h-1.5v-1.9H125.9z"/>
			<path class="st0" d="M125.7,199.4h-0.1c-1.5,0-3-0.7-4.1-1.9l-0.1-0.1l1.5-1.4l0.1,0.1c0.7,0.7,1.8,1.1,2.7,1.1h0.1
				c1.1,0,1.7-0.4,1.7-1.1c0-0.7-0.5-1.1-1.3-1.1h-1.6V193h1.4c1,0,1.2-0.6,1.2-1c0-0.8-0.7-1-1.3-1h-0.1c-0.8,0-1.9,0.4-2.6,1
				l-0.1,0.1l-1.5-1.4l0.1-0.1c1.1-1.1,2.6-1.7,4-1.7h0.1c2.5,0,3.4,1.5,3.4,2.8c0,1-0.4,1.9-1.2,2.3c0.9,0.4,1.5,1.2,1.5,2.4
				C129.5,197.5,129,199.4,125.7,199.4z M121.8,197.5c1,1.1,2.4,1.7,3.8,1.7h0.1c2.3,0,3.6-1,3.6-2.8c0-1.1-0.6-2-1.6-2.2l-0.4-0.1
				l0.4-0.1c0.8-0.3,1.3-1.1,1.3-2.2c0-0.6-0.2-2.5-3.2-2.6h-0.1c-1.3,0-2.6,0.6-3.7,1.5l1.1,1c0.7-0.6,1.8-1,2.7-1h0.1
				c1,0,1.5,0.4,1.5,1.2c0,0.3-0.1,1.2-1.4,1.2h-1.1v1.6h1.3c1.2,0,1.6,0.7,1.6,1.3c0,0.9-0.6,1.4-1.9,1.4h-0.1
				c-0.9,0-2-0.5-2.8-1.1L121.8,197.5z"/>
		</g>
		<g>
			<path class="st0" d="M154.7,199.2v-6.3l-4.8,6.3h-1.2v-10.1h2v6.3l4.8-6.3h1.2v10.1H154.7z"/>
			<path class="st0" d="M156.8,199.3h-2.2v-6.1l-4.6,6.1h-1.3V189h2.2v6.1l4.6-6.1h1.4V199.3z M154.8,199.1h1.7v-9.8h-1l-4.9,6.6
				v-6.6h-1.7v9.8h1l5-6.6V199.1z"/>
		</g>
		<g>
			<path class="st0" d="M182.5,199.2v-4.1h-3.9v4.1h-2v-10.1h2v4.1h3.9v-4.1h2v10.1H182.5z"/>
			<path class="st0" d="M184.6,199.3h-2.2v-4.1h-3.6v4.1h-2.2V189h2.2v4.1h3.6V189h2.2V199.3z M182.6,199.1h1.7v-9.8h-1.7v4.1h-4.1
				v-4.1h-1.7v9.8h1.7V195h4.1V199.1z"/>
		</g>
		<g>
			<path class="st0" d="M257,190.7l-1.3,1.2c-0.6-0.6-1.5-1-2.5-1c-1.8,0-3.1,1.3-3.1,3.3c0,1.9,1.4,3.3,3.1,3.3c1,0,1.9-0.3,2.5-1
				l1.3,1.2c-0.9,1-2.3,1.7-3.8,1.7c-2.8,0-5.1-2.3-5.1-5.1s2.3-5.1,5.1-5.1C254.7,189.1,256,189.7,257,190.7z"/>
			<path class="st0" d="M253.2,199.4c-2.9,0-5.2-2.4-5.2-5.3c0-2.9,2.3-5.3,5.2-5.3c1.5,0,2.9,0.6,3.9,1.7l0.1,0.1l-1.5,1.4
				l-0.1-0.1c-0.6-0.6-1.5-1-2.4-1c-1.7,0-3,1.3-3,3.1s1.3,3.1,3,3.1c1,0,1.8-0.3,2.4-1l0.1-0.1l1.5,1.4l-0.1,0.1
				C256.1,198.8,254.7,199.4,253.2,199.4z M253.2,189.2c-2.8,0-5,2.2-5,5c0,2.8,2.2,5,5,5c1.4,0,2.7-0.6,3.6-1.5l-1.1-1
				c-0.7,0.6-1.5,0.9-2.5,0.9c-1.9,0-3.3-1.4-3.3-3.4c0-1.9,1.4-3.4,3.3-3.4c0.9,0,1.8,0.3,2.5,0.9l1.1-1
				C255.9,189.7,254.5,189.2,253.2,189.2z"/>
		</g>
		<g>
			<path class="st0" d="M277.5,199.2h-2.2l4.1-10.1h1.2l4.1,10.1h-2.2l-0.7-1.8h-3.5L277.5,199.2z M278.9,195.5h2.2l-1.1-2.7
				L278.9,195.5z"/>
			<path class="st0" d="M284.9,199.3h-2.5l-0.7-1.8h-3.4l-0.7,1.8h-2.5l4.2-10.3h1.3L284.9,199.3z M282.6,199.1h1.9l-4-9.8h-1
				l-4,9.8h1.9l0.7-1.8h3.7L282.6,199.1z M281.2,195.6h-2.5l1.3-3.2L281.2,195.6z M279.1,195.4h1.8l-0.9-2.3L279.1,195.4z"/>
		</g>
		<g>
			<path class="st0" d="M309.7,199.2v-4.1h-3.9v4.1h-2v-10.1h2v4.1h3.9v-4.1h2v10.1H309.7z"/>
			<path class="st0" d="M311.8,199.3h-2.2v-4.1h-3.6v4.1h-2.2V189h2.2v4.1h3.6V189h2.2V199.3z M309.8,199.1h1.7v-9.8h-1.7v4.1h-4.1
				v-4.1h-1.7v9.8h1.7V195h4.1V199.1z"/>
		</g>
		<g>
			<path class="st0" d="M335.6,199.2h-2V191h-2.8v-1.9h7.5v1.9h-2.8V199.2z"/>
			<path class="st0" d="M335.7,199.3h-2.2v-8.2h-2.8V189h7.7v2.1h-2.8V199.3z M333.8,199.1h1.7v-8.2h2.8v-1.6H331v1.6h2.8V199.1z"/>
		</g>
		<g>
			<path class="st0" d="M364.1,193.2v1.9h-4.4v2.3h4.7v1.9h-6.7v-10.1h6.7v1.9h-4.7v2.2H364.1z"/>
			<path class="st0" d="M364.6,199.3h-6.9V189h6.9v2.1h-4.7v2h4.4v2.1h-4.4v2h4.7V199.3z M357.9,199.1h6.4v-1.6h-4.7V195h4.4v-1.6
				h-4.4v-2.4h4.7v-1.6h-6.4V199.1z"/>
		</g>
		<g>
			<path class="st0" d="M385.5,199.2h-2.3l3.5-5.2l-3.3-4.8h2.3l2.1,3.1l2.1-3.1h2.3l-3.3,4.9l3.5,5.2h-2.3l-2.4-3.4L385.5,199.2z"
				/>
			<path class="st0" d="M392.6,199.3h-2.6l-2.3-3.3l-2.2,3.3H383l3.6-5.4l-3.3-4.9h2.6l2.1,3l2-3h2.6l-3.3,5L392.6,199.3z
				 M390.2,199.1h2l-3.4-5l3.2-4.8h-2l-2.2,3.2l-2.2-3.2h-2l3.2,4.7l-3.4,5.1h2l2.4-3.5L390.2,199.1z"/>
		</g>
		<g>
			<path class="st0" d="M417.5,199.2v-4.1h-3.9v4.1h-2v-10.1h2v4.1h3.9v-4.1h2v10.1H417.5z"/>
			<path class="st0" d="M419.6,199.3h-2.2v-4.1h-3.6v4.1h-2.2V189h2.2v4.1h3.6V189h2.2V199.3z M417.6,199.1h1.7v-9.8h-1.7v4.1h-4.1
				v-4.1h-1.7v9.8h1.7V195h4.1V199.1z"/>
		</g>
		<g>
			<path class="st0" d="M445.4,199.2v-6.3l-4.8,6.3h-1.2v-10.1h2v6.3l4.8-6.3h1.2v10.1H445.4z"/>
			<path class="st0" d="M447.5,199.3h-2.2v-6.1l-4.6,6.1h-1.3V189h2.2v6.1l4.6-6.1h1.4V199.3z M445.5,199.1h1.7v-9.8h-1l-4.9,6.6
				v-6.6h-1.7v9.8h1l5-6.6V199.1z"/>
		</g>
		<g>
			<path class="st0" d="M471.7,196c-0.4-0.7-0.7-0.9-1.4-0.9h-0.9v4.1h-2v-10.1h2v4h0.9c0.7,0,0.9-0.2,1.4-0.9l2-3.1h2.2l-2.4,3.7
				c-0.6,0.8-0.9,1.1-1.2,1.2c0.3,0.1,0.6,0.4,1.2,1.3l2.5,3.8h-2.2L471.7,196z"/>
			<path class="st0" d="M476.3,199.3h-2.5l-2.1-3.3c-0.4-0.7-0.6-0.8-1.3-0.8h-0.8v4.1h-2.2V189h2.2v4h0.7c0.6,0,0.8-0.2,1.3-0.8
				l2-3.2h2.5l-2.5,3.9c-0.5,0.7-0.8,1-1,1.1c0.3,0.2,0.6,0.5,1.1,1.2L476.3,199.3z M473.9,199.1h1.9l-2.3-3.6
				c-0.5-0.9-0.9-1.1-1.2-1.3l-0.2-0.1l0.2-0.1c0.2-0.1,0.5-0.3,1.1-1.2l2.2-3.5h-1.9l-1.9,3c-0.4,0.7-0.7,1-1.5,1h-1v-4h-1.7v9.8
				h1.7V195h1c0.8,0,1,0.3,1.5,1L473.9,199.1z"/>
		</g>
		<g>
			<path class="st0" d="M501.2,199.2v-6.3l-4.8,6.3h-1.2v-10.1h2v6.3l4.8-6.3h1.2v10.1H501.2z"/>
			<path class="st0" d="M503.3,199.3h-2.2v-6.1l-4.6,6.1h-1.3V189h2.2v6.1l4.6-6.1h1.4V199.3z M501.3,199.1h1.7v-9.8h-1l-4.9,6.6
				v-6.6h-1.7v9.8h1l5-6.6V199.1z"/>
		</g>
	</g>
	<g>
		<g>
			<g>
				<path d="M21.3,197.5v-6.4l-3,3.8l-3-3.8v6.4h-2v-10h1.2l3.8,4.8l3.8-4.8h1.2v10H21.3z"/>
				<path d="M23.4,197.7h-2.2v-6.2l-2.9,3.6l-2.9-3.6v6.2h-2.2v-10.3h1.4l0,0l3.7,4.7l3.8-4.7h1.4V197.7z M21.4,197.4h1.7v-9.8h-1
					l-3.9,4.9l-3.9-4.9h-1v9.8h1.7v-6.6l3.1,3.9l3.1-3.9V197.4z"/>
			</g>
			<g>
				<path d="M44.8,197.5h-2.2l4.1-10h1.2l4.1,10h-2.2l-0.7-1.8h-3.5L44.8,197.5z M46.2,193.8h2.2l-1.1-2.7L46.2,193.8z"/>
				<path d="M52.1,197.7h-2.5l-0.7-1.8h-3.4l-0.7,1.8h-2.5l0.1-0.2l4.2-10.1H48L52.1,197.7z M49.9,197.4h1.9l-4-9.8h-1l-4,9.8h1.9
					l0.7-1.8h3.7L49.9,197.4z M48.5,193.9H46l1.3-3.2L48.5,193.9z M46.4,193.7h1.8l-0.9-2.3L46.4,193.7z"/>
			</g>
			<g>
				<path d="M73.3,197.5h-2v-10h6.5v1.9h-4.5V197.5z"/>
				<path d="M73.4,197.7h-2.2v-10.3h6.7v2.1h-4.5V197.7z M71.4,197.4h1.7v-8.2h4.5v-1.6h-6.2V197.4z"/>
			</g>
			<g>
				<path d="M97.4,197.5h-2.2l4.1-10h1.2l4.1,10h-2.2l-0.7-1.8h-3.5L97.4,197.5z M98.8,193.8h2.2l-1.1-2.7L98.8,193.8z"/>
				<path d="M104.8,197.7h-2.5l-0.7-1.8h-3.4l-0.7,1.8H95l0.1-0.2l4.2-10.1h1.3L104.8,197.7z M102.5,197.4h1.9l-4-9.8h-1l-4,9.8h1.9
					l0.7-1.8h3.7L102.5,197.4z M101.2,193.9h-2.5l1.3-3.2L101.2,193.9z M99,193.7h1.8l-0.9-2.3L99,193.7z"/>
			</g>
			<g>
				<path d="M127.1,191.4c1.1,0,1.3-0.6,1.3-1.1c0-0.7-0.4-1.1-1.4-1.1H127c-0.8,0-1.9,0.4-2.7,1l-1.3-1.2c1-1,2.5-1.7,3.9-1.7h0.1
					c2.7,0,3.3,1.7,3.3,2.7c0,1.1-0.6,2-1.4,2.3c1,0.2,1.7,1.2,1.7,2.3c0,1.6-1,2.9-3.7,2.9h-0.1c-1.5,0-3-0.8-4-1.8l1.3-1.2
					c0.7,0.7,1.8,1.2,2.8,1.2h0.1c1.1,0,1.8-0.3,1.8-1.3c0-0.6-0.4-1.2-1.4-1.2h-1.4v-1.8H127.1z"/>
				<path d="M126.8,197.8c-1.5,0-3-0.7-4.1-1.9l-0.1-0.1l1.5-1.4l0.1,0.1c0.7,0.7,1.8,1.1,2.7,1.1h0.1c1.1,0,1.7-0.4,1.7-1.1
					c0-0.7-0.5-1.1-1.3-1.1h-1.6v-2.1h1.4c1,0,1.2-0.6,1.2-1c0-0.8-0.7-1-1.3-1H127c-0.8,0-1.9,0.4-2.6,1l-0.1,0.1l-1.5-1.4l0.1-0.1
					c1.1-1.1,2.6-1.7,4-1.7h0.1c2.5,0,3.4,1.5,3.4,2.8c0,1-0.4,1.8-1.2,2.3c0.9,0.4,1.5,1.2,1.5,2.4c0,1.1-0.5,3-3.8,3H126.8z
					 M123,195.8c1,1.1,2.4,1.7,3.8,1.7h0.1c2.3,0,3.6-1,3.6-2.8c0-1.1-0.6-2-1.6-2.2l-0.4-0.1l0.4-0.1c0.8-0.3,1.3-1.1,1.3-2.2
					c0-0.6-0.2-2.5-3.2-2.6h-0.1c-1.3,0-2.6,0.6-3.7,1.5l1.1,1c0.7-0.6,1.8-1,2.6-1h0.1c1,0,1.5,0.4,1.5,1.2c0,0.3-0.1,1.2-1.4,1.2
					H126v1.6h1.3c1.1,0,1.6,0.7,1.6,1.3c0,0.9-0.6,1.4-1.9,1.4h-0.1c-0.9,0-2-0.5-2.8-1.1L123,195.8z"/>
			</g>
			<g>
				<path d="M155.8,197.5v-6.3l-4.8,6.3h-1.2v-10h2v6.3l4.7-6.3h1.2v10H155.8z"/>
				<path d="M157.9,197.7h-2.2v-6.1l-4.6,6.1h-1.3v-10.3h2.2v6.1l4.6-6.1h1.4V197.7z M156,197.4h1.7v-9.8h-1l-4.9,6.6v-6.6H150v9.8
					h1l4.9-6.6V197.4z"/>
			</g>
			<g>
				<path d="M183.6,197.5v-4.1h-3.9v4.1h-2v-10h2v4.1h3.9v-4.1h2v10H183.6z"/>
				<path d="M185.7,197.7h-2.2v-4.1h-3.6v4.1h-2.2v-10.3h2.2v4.1h3.6v-4.1h2.2V197.7z M183.7,197.4h1.7v-9.8h-1.7v4.1h-4.1v-4.1
					h-1.7v9.8h1.7v-4.1h4.1V197.4z"/>
			</g>
			<g>
				<path d="M258,189.1l-1.3,1.2c-0.6-0.6-1.5-1-2.5-1c-1.7,0-3.1,1.3-3.1,3.3c0,1.9,1.4,3.3,3.1,3.3c1,0,1.8-0.3,2.5-1l1.3,1.2
					c-0.9,1-2.3,1.7-3.8,1.7c-2.8,0-5.1-2.3-5.1-5.1c0-2.8,2.3-5.1,5.1-5.1C255.7,187.4,257,188,258,189.1z"/>
				<path d="M254.2,197.8c-2.9,0-5.2-2.4-5.2-5.2c0-2.9,2.3-5.2,5.2-5.2c1.5,0,2.9,0.6,3.9,1.7l0.1,0.1l-1.5,1.4l-0.1-0.1
					c-0.6-0.6-1.5-1-2.4-1c-1.7,0-3,1.3-3,3.1c0,1.8,1.3,3.1,3,3.1c1,0,1.8-0.3,2.4-1l0.1-0.1l1.5,1.4l-0.1,0.1
					C257.1,197.1,255.6,197.8,254.2,197.8z M254.2,187.5c-2.7,0-5,2.2-5,5c0,2.8,2.2,5,5,5c1.3,0,2.7-0.6,3.6-1.5l-1.1-1
					c-0.7,0.6-1.5,0.9-2.5,0.9c-1.9,0-3.2-1.4-3.2-3.4c0-1.9,1.4-3.4,3.2-3.4c0.9,0,1.8,0.3,2.5,0.9l1.1-1
					C256.8,188.1,255.5,187.5,254.2,187.5z"/>
			</g>
			<g>
				<path d="M278.4,197.5h-2.2l4.1-10h1.2l4.1,10h-2.2l-0.7-1.8h-3.5L278.4,197.5z M279.8,193.8h2.2l-1.1-2.7L279.8,193.8z"/>
				<path d="M285.8,197.7h-2.5l-0.7-1.8h-3.4l-0.7,1.8h-2.5l0.1-0.2l4.2-10.1h1.3L285.8,197.7z M283.5,197.4h1.9l-4-9.8h-1l-4,9.8
					h1.9l0.7-1.8h3.7L283.5,197.4z M282.2,193.9h-2.5l1.3-3.2L282.2,193.9z M280,193.7h1.8l-0.9-2.3L280,193.7z"/>
			</g>
			<g>
				<path d="M310.6,197.5v-4.1h-3.9v4.1h-2v-10h2v4.1h3.9v-4.1h2v10H310.6z"/>
				<path d="M312.7,197.7h-2.2v-4.1h-3.6v4.1h-2.2v-10.3h2.2v4.1h3.6v-4.1h2.2V197.7z M310.7,197.4h1.7v-9.8h-1.7v4.1h-4.1v-4.1
					h-1.7v9.8h1.7v-4.1h4.1V197.4z"/>
			</g>
			<g>
				<path d="M336.5,197.5h-2v-8.2h-2.8v-1.9h7.5v1.9h-2.8V197.5z"/>
				<path d="M336.6,197.7h-2.2v-8.2h-2.8v-2.1h7.7v2.1h-2.8V197.7z M334.6,197.4h1.7v-8.2h2.8v-1.6h-7.2v1.6h2.8V197.4z"/>
			</g>
			<g>
				<path d="M364.9,191.6v1.9h-4.3v2.3h4.7v1.9h-6.7v-10h6.7v1.9h-4.7v2.2H364.9z"/>
				<path d="M365.3,197.7h-6.9v-10.3h6.9v2.1h-4.7v1.9h4.3v2.1h-4.3v2h4.7V197.7z M358.7,197.4h6.4v-1.6h-4.7v-2.5h4.3v-1.6h-4.3
					v-2.4h4.7v-1.6h-6.4V197.4z"/>
			</g>
			<g>
				<path d="M386.2,197.5H384l3.5-5.2l-3.3-4.8h2.3l2.1,3.1l2.1-3.1h2.3l-3.3,4.9l3.5,5.1h-2.3l-2.4-3.4L386.2,197.5z"/>
				<path d="M393.4,197.7h-2.5l-2.3-3.3l-2.2,3.3h-2.6l3.6-5.4l-3.3-4.9h2.5l2.1,3l2-3h2.5l-3.3,5L393.4,197.7z M391,197.4h2l-3.4-5
					l0-0.1l3.1-4.7h-2l-2.2,3.2l-2.2-3.2h-2l3.2,4.7l0,0.1l-3.4,5h2l2.4-3.5L391,197.4z"/>
			</g>
			<g>
				<path d="M418.2,197.5v-4.1h-3.9v4.1h-2v-10h2v4.1h3.9v-4.1h2v10H418.2z"/>
				<path d="M420.3,197.7h-2.2v-4.1h-3.6v4.1h-2.2v-10.3h2.2v4.1h3.6v-4.1h2.2V197.7z M418.3,197.4h1.7v-9.8h-1.7v4.1h-4.1v-4.1
					h-1.7v9.8h1.7v-4.1h4.1V197.4z"/>
			</g>
			<g>
				<path d="M446,197.5v-6.3l-4.8,6.3h-1.2v-10h2v6.3l4.7-6.3h1.2v10H446z"/>
				<path d="M448.1,197.7h-2.2v-6.1l-4.6,6.1H440v-10.3h2.2v6.1l4.6-6.1h1.4V197.7z M446.2,197.4h1.7v-9.8h-1l-4.9,6.6v-6.6h-1.7
					v9.8h1l4.9-6.6V197.4z"/>
			</g>
			<g>
				<path d="M472.3,194.3c-0.4-0.7-0.7-0.9-1.4-0.9h-0.9v4.1h-2v-10h2v4h0.9c0.7,0,0.9-0.2,1.4-0.9l2-3.1h2.2l-2.4,3.7
					c-0.6,0.8-0.9,1.1-1.2,1.2c0.3,0.1,0.6,0.4,1.2,1.3l2.5,3.8h-2.2L472.3,194.3z"/>
				<path d="M476.9,197.7h-2.5l-2.1-3.3c-0.4-0.7-0.6-0.8-1.3-0.8h-0.8v4.1H468v-10.3h2.2v4h0.7c0.6,0,0.8-0.2,1.3-0.8l2-3.2h2.5
					l-2.5,3.9c-0.5,0.7-0.8,1-1,1.1c0.3,0.2,0.6,0.5,1.1,1.2L476.9,197.7z M474.5,197.4h1.9l-2.3-3.6c-0.5-0.9-0.9-1.1-1.2-1.3
					l-0.2-0.1l0.2-0.1c0.2-0.1,0.5-0.3,1.1-1.2l2.2-3.5h-1.9l-1.9,3c-0.4,0.7-0.7,1-1.5,1h-1v-4h-1.7v9.8h1.7v-4.1h1
					c0.8,0,1,0.3,1.5,1L474.5,197.4z"/>
			</g>
			<g>
				<path d="M501.8,197.5v-6.3l-4.8,6.3h-1.2v-10h2v6.3l4.7-6.3h1.2v10H501.8z"/>
				<path d="M503.9,197.7h-2.2v-6.1l-4.6,6.1h-1.3v-10.3h2.2v6.1l4.6-6.1h1.4V197.7z M501.9,197.4h1.7v-9.8h-1l-4.9,6.6v-6.6H496
					v9.8h1l4.9-6.6V197.4z"/>
			</g>
		</g>
		<g>
			<g>
				<path d="M64,93.7c-3-5-11.2-9.7-20.7-9.7c-12.2,0-18.1,5.1-18.1,11.6c0,7.6,9,9.7,19.4,11c18.2,2.2,35.1,7,35.1,27.8
					c0,19.4-17.2,27.8-36.6,27.8c-17.8,0-31.5-5.5-38-21.4l13.7-7.1c3.9,9.6,14,13.8,24.5,13.8c10.3,0,20.1-3.6,20.1-13.1
					c0-8.2-8.6-11.6-20.2-12.8C25.5,119.3,9.1,114.6,9.1,95c0-17.9,17.7-25.3,33.8-25.4c13.6,0,27.7,3.9,34.3,17.3L64,93.7z"/>
				<path d="M154.5,143.4h-45.6l-7.5,16.4H83.6l39.1-87.2h17.9l39.1,87.2h-17.9L154.5,143.4z M131.7,90.9l-16.2,37.1h32.4
					L131.7,90.9z"/>
				<path d="M244.5,72.5H261v87.3h-10.2v0.1L204.9,101v58.8h-16.4V72.6h13.3l42.7,54.1V72.5z"/>
				<path d="M346.9,97.9c0,6.7-3.2,13.2-11.3,16.8c10.2,3.1,14,14,14,19.4c0,19.4-14.6,25.7-32.6,25.7c-13.8,0-27.5,0-41.4,0V72.6
					c13.7,0,27.5,0,41.4,0C334.1,72.6,346.9,80.4,346.9,97.9z M291.7,107.6h25.2c10.3,0,13.7-4.4,13.7-9.3c0-4-3.2-10.7-13.7-10.7
					h-25.2V107.6z M291.7,144.5h25.2c6.7,0,16.3-2.2,16.3-10.5c0-7.8-9.6-12-16.3-12h-25.2V144.5z"/>
				<path d="M437.6,72.8v50c0,25.8-15.8,39-37.7,39c-20.9,0-38.7-12.7-38.7-39v-50h16.3v50c0,15.7,9,24,22.5,24
					c13.6,0,21.3-9.1,21.3-24v-50H437.6z"/>
				<path d="M490.4,108.6l23.2-36h19.8v0.7l-34.8,50.5v36h-16.4v-36l-33.5-50.5v-0.7h19.6L490.4,108.6z"/>
			</g>
			<g>
				<g>
					<g>
						<rect x="554" y="155.3" class="st1" width="250.6" height="13.9"/>
					</g>
				</g>
				<g>
					<g>
						<g>
							<path d="M740.7,128.5L744,143H759l-5.8-23.4c-3.7,3.1-7.6,5.9-11.8,8.5C741.2,128.3,741,128.4,740.7,128.5z"/>
						</g>
						<g>
							<path d="M583.1,143h16l10.5-18.2c-3.9-2.7-7.5-5.7-10.9-8.8L583.1,143z"/>
						</g>
					</g>
					<g>
						<g>
							<path d="M757.8,76.7c-11.2,26.8-42.7,46.2-79.9,46.2c-46.4,0-84.2-30.3-84.2-67.5c0-2,0.1-4,0.3-5.9l-12.8-2.1
								c-0.3,2.7-0.5,5.4-0.5,8.1c0,44.4,43.6,80.5,97.1,80.5c43.7,0,80.7-24,92.9-56.9L757.8,76.7z"/>
						</g>
						<g>
							<path d="M677.9,135.9c-53.6,0-97.2-36.1-97.2-80.6c0-2.7,0.2-5.4,0.5-8.1l0-0.1l13,2.2l0,0.1c-0.2,2-0.3,4-0.3,5.9
								c0,37.2,37.7,67.4,84.1,67.4c36.2,0,68.3-18.5,79.8-46.1l0-0.1l0.1,0l13.1,2.2l-0.1,0.1c-6,16.1-18.3,30.7-34.7,40.9
								C719.3,130.4,699.1,135.9,677.9,135.9z M581.4,47.4c-0.3,2.6-0.5,5.3-0.5,7.9c0,44.3,43.5,80.3,97,80.3
								c42.2,0,80.3-23.3,92.7-56.7l-12.8-2.1c-5.6,13.3-16,24.8-30.2,33.1c-14.5,8.5-31.7,13.1-49.7,13.1
								c-46.5,0-84.3-30.4-84.3-67.7c0-1.9,0.1-3.9,0.3-5.8L581.4,47.4z"/>
						</g>
					</g>
					<g>
						<g>
							<path class="st1" d="M727.8,2.2c-5.7,0-11.2,0.9-16.3,2.4L719,16c2.8-0.6,5.7-0.9,8.7-0.9c18.3,0,33.7,11.5,37.4,26.8
								l13.5,2.2C775.9,20.6,754.1,2.2,727.8,2.2z"/>
						</g>
					</g>
					<g>
						<g>
							<path d="M737.8,69.9c-34.1,0-67.3-7.9-92.9-16.3c-42.6-13.9-73-31.5-74.3-32.3l7-12l-3.5,6l3.5-6
								c0.3,0.2,30.6,17.7,71.9,31.2c37.6,12.3,92.4,23.6,139.6,7.8l4.4,13.2C775.4,67.5,756.5,69.9,737.8,69.9z"/>
						</g>
					</g>
				</g>
				<g>
					<g>
						<g>
							<g>
								<path class="st1" d="M763.3,221.1c-13,0-23.6-10.6-23.6-23.6c0-13,10.6-23.6,23.6-23.6c13,0,23.6,10.6,23.6,23.6
									C786.9,210.5,776.3,221.1,763.3,221.1z M763.3,187.8c-5.4,0-9.8,4.4-9.8,9.8s4.4,9.8,9.8,9.8c5.4,0,9.8-4.4,9.8-9.8
									S768.7,187.8,763.3,187.8z"/>
							</g>
						</g>
					</g>
				</g>
				<g>
					<g>
						<g>
							<g>
								<path class="st1" d="M600,221.1c-13,0-23.6-10.6-23.6-23.6c0-13,10.6-23.6,23.6-23.6s23.6,10.6,23.6,23.6
									C623.7,210.5,613.1,221.1,600,221.1z M600,187.8c-5.4,0-9.8,4.4-9.8,9.8s4.4,9.8,9.8,9.8c5.4,0,9.8-4.4,9.8-9.8
									S605.4,187.8,600,187.8z"/>
							</g>
						</g>
					</g>
				</g>
			</g>
		</g>
	</g>
</g>
</svg>
