<?xml version="1.0" encoding="utf-8"?>
<!-- Generator: Adobe Illustrator 21.0.2, SVG Export Plug-In . SVG Version: 6.00 Build 0)  -->
<svg version="1.1" id="Слой_1" xmlns="http://www.w3.org/2000/svg" xmlns:xlink="http://www.w3.org/1999/xlink" x="0px" y="0px"
	 viewBox="0 0 822 226.8" style="enable-background:new 0 0 822 226.8;" xml:space="preserve">
<style type="text/css">
	.st0{fill:#EDBC6E;}
	.st1{stroke:#000000;stroke-width:0.25;stroke-miterlimit:10;}
</style>
<g>
	<g>
		<g>
			<g>
				<path d="M66.5,95.2c-3-5-11.3-9.8-20.9-9.8c-12.3,0-18.2,5.2-18.2,11.7c0,7.7,9.1,9.8,19.6,11.1c18.4,2.3,35.5,7,35.5,28.1
					c0,19.6-17.4,28.1-37,28.1c-18,0-31.8-5.5-38.4-21.6l13.8-7.2c3.9,9.7,14.1,14,24.8,14c10.4,0,20.3-3.6,20.3-13.2
					c0-8.3-8.7-11.7-20.4-13c-18-2.1-34.6-6.9-34.6-26.7C11,78.5,28.9,71,45.1,70.9c13.7,0,27.9,3.9,34.6,17.5L66.5,95.2z"/>
			</g>
			<g>
				<path d="M157.8,145.4h-46l-7.5,16.6h-18l39.5-88.1h18.1l39.5,88.1h-18.1L157.8,145.4z M134.8,92.4l-16.4,37.5h32.7L134.8,92.4z"
					/>
			</g>
			<g>
				<path d="M248.8,73.8h16.6V162h-10.3v0.1l-46.3-59.5V162h-16.6V73.9h13.5l43.2,54.6V73.8z"/>
			</g>
			<g>
				<path d="M352.2,99.5c0,6.8-3.3,13.3-11.4,17c10.3,3.1,14.1,14.1,14.1,19.6c0,19.6-14.7,25.9-33,25.9c-14,0-27.8,0-41.8,0V73.9
					c13.8,0,27.8,0,41.8,0C339.3,73.9,352.2,81.7,352.2,99.5z M296.5,109.3h25.4c10.4,0,13.8-4.4,13.8-9.4c0-4-3.3-10.8-13.8-10.8
					h-25.4V109.3z M296.5,146.5h25.4c6.8,0,16.5-2.3,16.5-10.6c0-7.9-9.7-12.1-16.5-12.1h-25.4V146.5z"/>
			</g>
			<g>
				<path d="M443.8,74.1v50.4c0,26-16,39.4-38.1,39.4c-21.1,0-39.1-12.8-39.1-39.4V74.1H383v50.4c0,15.9,9.1,24.3,22.8,24.3
					c13.7,0,21.5-9.2,21.5-24.3V74.1H443.8z"/>
			</g>
			<g>
				<path d="M497.1,110.3l23.4-36.4h20v0.8l-35.1,51V162h-16.6v-36.4l-33.8-51v-0.8h19.8L497.1,110.3z"/>
			</g>
		</g>
		<g>
			<g>
				<g>
					<g>
						<rect x="561.4" y="157.4" class="st0" width="253.1" height="14"/>
					</g>
				</g>
			</g>
			<g>
				<g>
					<g>
						<g>
							<path d="M749.9,130.4l3.3,14.6h15.2l-5.9-23.6c-3.7,3.1-7.7,6-11.9,8.6C750.4,130.1,750.2,130.2,749.9,130.4z"/>
						</g>
					</g>
					<g>
						<g>
							<path d="M590.7,145h16.1l10.6-18.4c-3.9-2.8-7.6-5.7-11-8.9L590.7,145z"/>
						</g>
					</g>
				</g>
				<g>
					<g>
						<g>
							<path d="M767.2,78.1c-11.3,27.1-43.2,46.6-80.7,46.6c-46.9,0-85-30.6-85-68.2c0-2,0.1-4,0.3-6l-12.9-2.1
								c-0.3,2.7-0.5,5.4-0.5,8.2c0,44.8,44,81.3,98.1,81.3c44.1,0,81.5-24.2,93.8-57.5L767.2,78.1z"/>
						</g>
					</g>
					<g>
						<g>
							<path d="M686.5,137.9c-54.1,0-98.2-36.5-98.2-81.4c0-2.7,0.2-5.5,0.5-8.2l0-0.1l13.1,2.2l0,0.1c-0.2,2-0.3,4-0.3,6
								c0,37.5,38.1,68.1,84.9,68.1c36.6,0,68.9-18.7,80.5-46.6l0-0.1l0.1,0l13.3,2.2l-0.1,0.1c-6,16.3-18.5,31-35,41.3
								C728.3,132.3,707.9,137.9,686.5,137.9z M589,48.5c-0.3,2.7-0.5,5.4-0.5,8c0,44.7,43.9,81.1,97.9,81.1
								c42.6,0,81.1-23.5,93.6-57.3l-12.9-2.1c-5.6,13.4-16.2,25-30.5,33.4c-14.7,8.6-32,13.2-50.2,13.2c-47,0-85.1-30.7-85.1-68.3
								c0-1.9,0.1-3.9,0.3-5.9L589,48.5z"/>
						</g>
					</g>
				</g>
				<g>
					<g>
						<g>
							<path class="st0" d="M736.8,2.8c-5.8,0-11.3,0.9-16.5,2.5l7.6,11.4c2.8-0.6,5.8-0.9,8.8-0.9c18.5,0,34,11.6,37.8,27.1
								l13.6,2.2C785.5,21.4,763.5,2.8,736.8,2.8z"/>
						</g>
					</g>
				</g>
				<g>
					<g>
						<g>
							<path d="M747,71.2c-34.4,0-68-8-93.9-16.5c-43-14.1-73.7-31.9-75-32.6l7.1-12.1l-3.5,6l3.5-6c0.3,0.2,30.9,17.9,72.6,31.5
								c38,12.4,93.3,23.8,141,7.9l4.4,13.3C785,68.8,765.9,71.2,747,71.2z"/>
						</g>
					</g>
				</g>
			</g>
			<g>
				<g>
					<g>
						<g>
							<g>
								<path class="st0" d="M772.7,223.9c-13.1,0-23.8-10.7-23.8-23.8s10.7-23.8,23.8-23.8s23.8,10.7,23.8,23.8
									S785.9,223.9,772.7,223.9z M772.7,190.2c-5.4,0-9.8,4.4-9.8,9.8s4.4,9.8,9.8,9.8s9.8-4.4,9.8-9.8S778.1,190.2,772.7,190.2z"
									/>
							</g>
						</g>
					</g>
				</g>
			</g>
			<g>
				<g>
					<g>
						<g>
							<g>
								<path class="st0" d="M607.8,223.9c-13.1,0-23.8-10.7-23.8-23.8s10.7-23.8,23.8-23.8s23.8,10.7,23.8,23.8
									S621,223.9,607.8,223.9z M607.8,190.2c-5.4,0-9.8,4.4-9.8,9.8s4.4,9.8,9.8,9.8s9.8-4.4,9.8-9.8S613.3,190.2,607.8,190.2z"/>
							</g>
						</g>
					</g>
				</g>
			</g>
		</g>
	</g>
	<g>
		<path class="st1" d="M25.1,209.4v-12.3l-5.8,7.2l-5.8-7.2v12.3H9.7v-19.2H12l7.3,9.2l7.3-9.2h2.2v19.2H25.1z"/>
		<path class="st1" d="M47.3,209.4h-4.2l7.9-19.2h2.2l7.8,19.2h-4.2l-1.4-3.5h-6.8L47.3,209.4z M50,202.3h4.1l-2.1-5.2L50,202.3z"/>
		<path class="st1" d="M79,209.4h-3.8v-19.2h12.4v3.6H79V209.4z"/>
		<path class="st1" d="M102.5,209.4h-4.2l7.9-19.2h2.2l7.8,19.2H112l-1.4-3.5h-6.8L102.5,209.4z M105.2,202.3h4.1l-2.1-5.2
			L105.2,202.3z"/>
		<path class="st1" d="M136.6,197.7c2,0,2.5-1.2,2.5-2.1c0-1.3-0.8-2.1-2.7-2.1h-0.1c-1.5,0-3.6,0.7-5.1,1.9l-2.5-2.3
			c2-1.9,4.7-3.2,7.4-3.2h0.2c5.2,0.1,6.3,3.2,6.3,5.2c0,2.1-1.1,3.8-2.6,4.4c2,0.5,3.2,2.2,3.2,4.5c0,3.1-1.9,5.5-7.1,5.6H136
			c-3,0-5.8-1.5-7.6-3.5l2.5-2.3c1.3,1.3,3.5,2.2,5.3,2.2h0.1c2,0,3.4-0.7,3.4-2.4c0-1.2-0.8-2.3-2.7-2.3h-2.8v-3.5H136.6z"/>
		<path class="st1" d="M168.8,209.4v-12.1l-9.1,12.1h-2.2v-19.2h3.8v12.1l9.1-12.1h2.2v19.2H168.8z"/>
		<path class="st1" d="M199.2,209.4v-7.9h-7.4v7.9H188v-19.2h3.8v7.8h7.4v-7.8h3.8v19.2H199.2z"/>
		<path class="st1" d="M273.2,193.2l-2.5,2.3c-1.2-1.2-2.9-1.9-4.8-1.9c-3.3,0-6,2.5-6,6.2c0,3.7,2.6,6.2,6,6.2
			c1.9,0,3.5-0.7,4.8-1.9l2.5,2.3c-1.8,1.9-4.4,3.2-7.2,3.2c-5.4,0-9.8-4.4-9.8-9.8c0-5.4,4.4-9.8,9.8-9.8
			C268.9,190,271.4,191.3,273.2,193.2z"/>
		<path class="st1" d="M289.7,209.4h-4.2l7.9-19.2h2.2l7.8,19.2h-4.2l-1.4-3.5H291L289.7,209.4z M292.3,202.3h4.1l-2.1-5.2
			L292.3,202.3z"/>
		<path class="st1" d="M328.4,209.4v-7.9h-7.4v7.9h-3.8v-19.2h3.8v7.8h7.4v-7.8h3.8v19.2H328.4z"/>
		<path class="st1" d="M355.2,209.4h-3.8v-15.6h-5.3v-3.6h14.3v3.6h-5.3V209.4z"/>
		<path class="st1" d="M386.8,198v3.6h-8.3v4.3h9v3.6h-12.8v-19.2h12.8v3.6h-9v4.2H386.8z"/>
		<path class="st1" d="M404.9,209.4h-4.3l6.7-10l-6.2-9.2h4.3l4.1,5.9l4-5.9h4.3l-6.2,9.3l6.7,9.8h-4.3l-4.5-6.5L404.9,209.4z"/>
		<path class="st1" d="M443.3,209.4v-7.9h-7.4v7.9h-3.8v-19.2h3.8v7.8h7.4v-7.8h3.8v19.2H443.3z"/>
		<path class="st1" d="M473.9,209.4v-12.1l-9.1,12.1h-2.2v-19.2h3.8v12.1l9.1-12.1h2.2v19.2H473.9z"/>
		<path class="st1" d="M501.5,203.2c-0.8-1.3-1.3-1.7-2.6-1.7h-1.8v7.9h-3.8v-19.2h3.8v7.6h1.6c1.3,0,1.8-0.5,2.6-1.7l3.8-5.9h4.3
			l-4.5,7.1c-1.1,1.5-1.7,2-2.2,2.3c0.6,0.3,1.2,0.8,2.3,2.5l4.7,7.3h-4.3L501.5,203.2z"/>
		<path class="st1" d="M535,209.4v-12.1l-9.1,12.1h-2.2v-19.2h3.8v12.1l9.1-12.1h2.2v19.2H535z"/>
	</g>
</g>
</svg>
