<?xml version="1.0" encoding="utf-8"?>
<!-- Generator: Adobe Illustrator 21.0.2, SVG Export Plug-In . SVG Version: 6.00 Build 0)  -->
<svg version="1.1" id="Слой_1" xmlns="http://www.w3.org/2000/svg" xmlns:xlink="http://www.w3.org/1999/xlink" x="0px" y="0px"
	 viewBox="0 0 822 226.8" style="enable-background:new 0 0 822 226.8;" xml:space="preserve">
<style type="text/css">
	.st0{fill:#FFFFFF;}
	.st1{fill:#EDBC6E;}
	.st2{fill:#FFFFFF;stroke:#FFFFFF;stroke-width:0.25;stroke-miterlimit:10;}
</style>
<g>
	<g>
		<g>
			<g>
				<path class="st0" d="M66.9,95.6c-3-5-11.3-9.8-20.9-9.8c-12.3,0-18.2,5.2-18.2,11.7c0,7.7,9.1,9.8,19.6,11.1
					c18.4,2.3,35.5,7,35.5,28.1c0,19.6-17.4,28.1-37,28.1c-18,0-31.8-5.5-38.4-21.6l13.8-7.2c3.9,9.7,14.1,14,24.8,14
					c10.4,0,20.3-3.6,20.3-13.2c0-8.3-8.7-11.7-20.4-13c-18-2.1-34.6-6.9-34.6-26.7c0-18.1,17.9-25.5,34.1-25.7
					c13.7,0,27.9,3.9,34.6,17.5L66.9,95.6z"/>
			</g>
			<g>
				<path class="st0" d="M158.3,145.8h-46l-7.5,16.6h-18l39.5-88.1h18.1l39.5,88.1h-18.1L158.3,145.8z M135.2,92.8l-16.4,37.5h32.7
					L135.2,92.8z"/>
			</g>
			<g>
				<path class="st0" d="M249.2,74.2h16.6v88.2h-10.3v0.1L209.2,103v59.4h-16.6V74.3h13.5l43.2,54.6V74.2z"/>
			</g>
			<g>
				<path class="st0" d="M352.6,99.9c0,6.8-3.3,13.3-11.4,17c10.3,3.1,14.1,14.1,14.1,19.6c0,19.6-14.7,25.9-33,25.9
					c-14,0-27.8,0-41.8,0V74.3c13.8,0,27.8,0,41.8,0C339.7,74.3,352.6,82.1,352.6,99.9z M296.9,109.7h25.4c10.4,0,13.8-4.4,13.8-9.4
					c0-4-3.3-10.8-13.8-10.8h-25.4V109.7z M296.9,146.9h25.4c6.8,0,16.5-2.3,16.5-10.6c0-7.9-9.7-12.1-16.5-12.1h-25.4V146.9z"/>
			</g>
			<g>
				<path class="st0" d="M444.2,74.5v50.4c0,26-16,39.4-38.1,39.4c-21.1,0-39.1-12.8-39.1-39.4V74.5h16.5v50.4
					c0,15.9,9.1,24.3,22.8,24.3c13.7,0,21.5-9.2,21.5-24.3V74.5H444.2z"/>
			</g>
			<g>
				<path class="st0" d="M497.6,110.7L521,74.3h20v0.8l-35.1,51v36.4h-16.6V126l-33.8-51v-0.8h19.8L497.6,110.7z"/>
			</g>
		</g>
		<g>
			<g>
				<g>
					<rect x="561.8" y="157.8" class="st1" width="253.1" height="14"/>
				</g>
			</g>
			<g>
				<g>
					<g>
						<path class="st0" d="M750.3,130.8l3.3,14.6h15.2l-5.9-23.6c-3.7,3.1-7.7,6-11.9,8.6C750.8,130.5,750.6,130.6,750.3,130.8z"/>
					</g>
					<g>
						<path class="st0" d="M591.1,145.4h16.1l10.6-18.4c-3.9-2.8-7.6-5.7-11-8.9L591.1,145.4z"/>
					</g>
				</g>
				<g>
					<g>
						<path class="st0" d="M767.6,78.5c-11.3,27.1-43.2,46.6-80.7,46.6c-46.9,0-85-30.6-85-68.2c0-2,0.1-4,0.3-6l-12.9-2.1
							c-0.3,2.7-0.5,5.4-0.5,8.2c0,44.8,44,81.3,98.1,81.3c44.1,0,81.5-24.2,93.8-57.5L767.6,78.5z"/>
					</g>
					<g>
						<path class="st0" d="M686.9,138.3c-54.1,0-98.2-36.5-98.2-81.4c0-2.7,0.2-5.5,0.5-8.2l0-0.1l13.1,2.2l0,0.1
							c-0.2,2-0.3,4-0.3,6c0,37.5,38.1,68.1,84.9,68.1c36.6,0,68.9-18.7,80.5-46.6l0-0.1l0.1,0l13.3,2.2l-0.1,0.1
							c-6,16.3-18.5,31-35,41.3C728.7,132.6,708.3,138.3,686.9,138.3z M589.5,48.9c-0.3,2.7-0.5,5.4-0.5,8
							c0,44.7,43.9,81.1,97.9,81.1c42.6,0,81.1-23.5,93.6-57.3l-12.9-2.1c-5.6,13.4-16.2,25-30.5,33.4c-14.7,8.6-32,13.2-50.2,13.2
							c-47,0-85.1-30.7-85.1-68.3c0-1.9,0.1-3.9,0.3-5.9L589.5,48.9z"/>
					</g>
				</g>
				<g>
					<g>
						<path class="st1" d="M737.2,3.2c-5.8,0-11.3,0.9-16.5,2.5l7.6,11.4c2.8-0.6,5.8-0.9,8.8-0.9c18.5,0,34,11.6,37.8,27.1
							l13.6,2.2C785.9,21.8,763.9,3.2,737.2,3.2z"/>
					</g>
				</g>
				<g>
					<g>
						<path class="st0" d="M747.4,71.6c-34.4,0-68-8-93.9-16.5c-43-14.1-73.7-31.9-75-32.6l7.1-12.1l-3.5,6l3.5-6
							c0.3,0.2,30.9,17.9,72.6,31.5c38,12.4,93.3,23.8,141,7.9l4.4,13.3C785.4,69.2,766.3,71.6,747.4,71.6z"/>
					</g>
				</g>
			</g>
			<g>
				<g>
					<g>
						<g>
							<path class="st1" d="M773.1,224.3c-13.1,0-23.8-10.7-23.8-23.8s10.7-23.8,23.8-23.8s23.8,10.7,23.8,23.8
								S786.3,224.3,773.1,224.3z M773.1,190.6c-5.4,0-9.8,4.4-9.8,9.8s4.4,9.8,9.8,9.8s9.8-4.4,9.8-9.8S778.6,190.6,773.1,190.6z"
								/>
						</g>
					</g>
				</g>
			</g>
			<g>
				<g>
					<g>
						<g>
							<path class="st1" d="M608.3,224.3c-13.1,0-23.8-10.7-23.8-23.8s10.7-23.8,23.8-23.8s23.8,10.7,23.8,23.8
								S621.4,224.3,608.3,224.3z M608.3,190.6c-5.4,0-9.8,4.4-9.8,9.8s4.4,9.8,9.8,9.8s9.8-4.4,9.8-9.8S613.7,190.6,608.3,190.6z"
								/>
						</g>
					</g>
				</g>
			</g>
		</g>
	</g>
	<g>
		<path class="st2" d="M25.5,208.8v-12.3l-5.8,7.2l-5.8-7.2v12.3h-3.8v-19.2h2.2l7.3,9.2l7.3-9.2h2.2v19.2H25.5z"/>
		<path class="st2" d="M47.7,208.8h-4.2l7.9-19.2h2.2l7.8,19.2h-4.2l-1.4-3.5h-6.8L47.7,208.8z M50.4,201.7h4.1l-2.1-5.2L50.4,201.7
			z"/>
		<path class="st2" d="M79.4,208.8h-3.8v-19.2h12.4v3.6h-8.6V208.8z"/>
		<path class="st2" d="M102.9,208.8h-4.2l7.9-19.2h2.2l7.8,19.2h-4.2l-1.4-3.5h-6.8L102.9,208.8z M105.6,201.7h4.1l-2.1-5.2
			L105.6,201.7z"/>
		<path class="st2" d="M137,197.1c2,0,2.5-1.2,2.5-2.1c0-1.3-0.8-2.1-2.7-2.1h-0.1c-1.5,0-3.6,0.7-5.1,1.9l-2.5-2.3
			c2-1.9,4.7-3.2,7.4-3.2h0.2c5.2,0.1,6.3,3.2,6.3,5.2c0,2.1-1.1,3.8-2.6,4.4c2,0.5,3.2,2.2,3.2,4.5c0,3.1-1.9,5.5-7.1,5.6h-0.2
			c-3,0-5.8-1.5-7.6-3.5l2.5-2.3c1.3,1.3,3.5,2.2,5.3,2.2h0.1c2,0,3.4-0.7,3.4-2.4c0-1.2-0.8-2.3-2.7-2.3h-2.8v-3.5H137z"/>
		<path class="st2" d="M169.2,208.8v-12.1l-9.1,12.1h-2.2v-19.2h3.8v12.1l9.1-12.1h2.2v19.2H169.2z"/>
		<path class="st2" d="M199.6,208.8v-7.9h-7.4v7.9h-3.8v-19.2h3.8v7.8h7.4v-7.8h3.8v19.2H199.6z"/>
		<path class="st2" d="M273.7,192.6l-2.5,2.3c-1.2-1.2-2.9-1.9-4.8-1.9c-3.3,0-6,2.5-6,6.2c0,3.7,2.6,6.2,6,6.2
			c1.9,0,3.5-0.7,4.8-1.9l2.5,2.3c-1.8,1.9-4.4,3.2-7.2,3.2c-5.4,0-9.8-4.4-9.8-9.8c0-5.4,4.4-9.8,9.8-9.8
			C269.3,189.4,271.8,190.6,273.7,192.6z"/>
		<path class="st2" d="M290.1,208.8h-4.2l7.9-19.2h2.2l7.8,19.2h-4.2l-1.4-3.5h-6.8L290.1,208.8z M292.8,201.7h4.1l-2.1-5.2
			L292.8,201.7z"/>
		<path class="st2" d="M328.8,208.8v-7.9h-7.4v7.9h-3.8v-19.2h3.8v7.8h7.4v-7.8h3.8v19.2H328.8z"/>
		<path class="st2" d="M355.6,208.8h-3.8v-15.6h-5.3v-3.6h14.3v3.6h-5.3V208.8z"/>
		<path class="st2" d="M387.2,197.3v3.6h-8.3v4.3h9v3.6h-12.8v-19.2h12.8v3.6h-9v4.2H387.2z"/>
		<path class="st2" d="M405.4,208.8H401l6.7-10l-6.2-9.2h4.3l4.1,5.9l4-5.9h4.3l-6.2,9.3l6.7,9.8h-4.3l-4.5-6.5L405.4,208.8z"/>
		<path class="st2" d="M443.8,208.8v-7.9h-7.4v7.9h-3.8v-19.2h3.8v7.8h7.4v-7.8h3.8v19.2H443.8z"/>
		<path class="st2" d="M474.3,208.8v-12.1l-9.1,12.1H463v-19.2h3.8v12.1l9.1-12.1h2.2v19.2H474.3z"/>
		<path class="st2" d="M501.9,202.6c-0.8-1.3-1.3-1.7-2.6-1.7h-1.8v7.9h-3.8v-19.2h3.8v7.6h1.6c1.3,0,1.8-0.5,2.6-1.7l3.8-5.9h4.3
			l-4.5,7.1c-1.1,1.5-1.7,2-2.2,2.3c0.6,0.3,1.2,0.8,2.3,2.5l4.7,7.3h-4.3L501.9,202.6z"/>
		<path class="st2" d="M535.4,208.8v-12.1l-9.1,12.1h-2.2v-19.2h3.8v12.1l9.1-12.1h2.2v19.2H535.4z"/>
	</g>
</g>
</svg>
